<svg id="Layer_1" data-name="Layer 1" xmlns="http://www.w3.org/2000/svg" viewBox="0 0 3000 500"><defs><style>.cls-1{fill:#3f1ef8;}</style></defs><path class="cls-1" d="M269.92,118.67V295a3.58,3.58,0,0,1-3.58,3.59H93.56A3.59,3.59,0,0,1,90,295V122.26a3.59,3.59,0,0,1,3.59-3.59H269.92V32.28a3.58,3.58,0,0,0-3.58-3.59H91.46a3.62,3.62,0,0,0-2.54,1L1.05,117.62a3.58,3.58,0,0,0-1,2.53v177a3.6,3.6,0,0,0,1.05,2.54l87.87,87.87a3.62,3.62,0,0,0,2.54,1h66L96.1,450a3.58,3.58,0,0,0,2.54,6.12H261.26A3.58,3.58,0,0,0,263.8,450l-61.36-61.36h66a3.62,3.62,0,0,0,2.54-1l87.87-87.87a3.6,3.6,0,0,0,1-2.54V122.26a3.59,3.59,0,0,0-3.59-3.59Z"/><path d="M516.52,166c0-20.52,0-36.31-.4-51.3H667.26c69.85,0,93.53,21.7,93.53,71.42v1.19c0,32.36-11.84,53.67-45.38,64.72,37.09,10.26,50.51,30.78,50.51,68.27v1.57c0,52.49-25.65,73-93.53,73H516.12c.4-15,.4-30.78.4-52.49Zm48.14-11v78.53h97.47c36.31,0,48.94-11.05,48.94-38.28v-1.58c0-28.81-12.63-38.67-48.94-38.67Zm0,118v81.69H666.87c36.3,0,49.33-8.29,49.33-41v-.79c0-30.39-13-39.86-51.7-39.86Z"/><path d="M795.52,327c0-52.48,22.49-74.19,86.82-74.19,36.3,0,60.38,7.9,74.19,22.89v-26c0-37.1-11.84-48.94-56-48.94-42.62,0-50.12,8.29-50.12,33.94l-45-1.18c-.79-50.51,23.67-73,95.89-73,80.9,0,102.6,24.86,102.6,78.53,0,31.18-.39,44.6-.39,80.9,0,23.68,0,43.8.39,75H961.26l-.79-28.41c-13,20.52-38.28,33.14-78.53,33.14C816.83,399.65,795.52,378.74,795.52,327Zm162.19-.79v-9.86c0-18.94-12.23-29.2-56.83-29.2-47.75,0-57.22,10.65-57.22,38.67,0,27.23,13.82,35.91,56.44,35.91C945.48,361.77,957.71,351.51,957.71,326.25Z"/><path d="M1058,153c0-21.71,0-39.07-.4-53.28h47.75c-.39,14.21-.39,31.18-.39,52.88V341.25c0,22.1,0,37.49.39,53.67h-47.75c.4-15.79.4-31.57.4-53.28Z"/><path d="M1161.34,153c0-21.71,0-39.07-.4-53.28h47.75c-.4,14.21-.4,31.18-.4,52.88V341.25c0,22.1,0,37.49.4,53.67h-47.75c.4-15.79.4-31.57.4-53.28Z"/><path d="M1250.12,286V274.16c0-87.6,30-113.65,109.31-113.65,79.72,0,109.71,26.05,109.71,113.65V286c0,87.61-30,113.65-109.71,113.65C1280.11,399.65,1250.12,373.61,1250.12,286Zm171.66-4.34v-3.15c0-61.57-15-75.77-62.35-75.77-47,0-62,14.2-62,75.77v3.15c0,61.17,15,75.77,62,75.77C1406.79,357.43,1421.78,342.83,1421.78,281.66Z"/><path d="M1496.37,286V274.16c0-87.6,30-113.65,109.31-113.65,79.71,0,109.7,26.05,109.7,113.65V286c0,87.61-30,113.65-109.7,113.65C1526.36,399.65,1496.37,373.61,1496.37,286ZM1668,281.66v-3.15c0-61.57-15-75.77-62.35-75.77-47,0-62,14.2-62,75.77v3.15c0,61.17,15,75.77,62,75.77C1653,357.43,1668,342.83,1668,281.66Z"/><path d="M1756.42,214.58c0-19.34,0-33.15-.39-49.33h44.19l.79,37.49c14.21-31.18,40.65-42.23,80.51-42.23,55.24,0,79.32,21.71,79.32,80.11,0,11.84-.4,28-.4,61.17v41.83c0,17.36,0,32,.4,51.3h-47.36c.4-17.76.4-28.41.4-51.3V267.85c0-52.48-13-64.32-54.07-64.32s-56.43,11.84-56.43,72.61V344c0,20.92,0,33.94.4,50.91H1756c.39-17.36.39-31.18.39-52.09Z"/><path d="M2207.4,172.2h12.93V386.83c0,25.86-8.62,47.41-25,62.5-15.52,14.22-37.5,22-66.81,22-53.87,0-84-22-88.35-54.31h13.36c5.6,28.45,32.33,43.1,74.56,43.1,54.74,0,79.3-31,79.3-73.27V336h-.86c-13.79,35.77-41.81,56.89-81.89,56.89-56.89,0-94.81-44.83-94.81-112.06,0-74.56,44.39-112.49,94.81-112.49,42.67,0,70.25,25.43,81.89,59.48h.86Zm.87,109.9c0-60.77-31.47-102.14-82.32-102.14-47,0-83.18,35.77-83.18,101.28,0,59.48,32.32,100.42,82.75,100.42C2175.51,381.66,2208.27,343.3,2208.27,282.1Z"/><path d="M2364.26,184.27a78.62,78.62,0,0,0-24.57.86c-35.34,5.17-59,39.22-59,70.25V395h-12.93V172.2h12.93v45.25h.86c11.64-24.56,31.46-39.22,53.87-42.66a68.35,68.35,0,0,1,28.88-3Z"/><path d="M2371.56,283.4c0-63.79,37.93-115.08,101.29-115.08,63.78,0,101.28,50.86,101.28,115.08s-37.5,115.93-101.28,115.93C2409.49,399.33,2371.56,347.61,2371.56,283.4Zm189.21,0c0-62.5-36.64-103.87-87.92-103.87s-88.36,41.8-88.36,103.87c0,62.49,37.07,104.73,88.36,104.73S2560.77,345.89,2560.77,283.4Z"/><path d="M2754.71,356.66h-.86c-12.5,21.55-35.78,42.24-76.72,42.24-45.26,0-70.68-27.15-70.68-67.23V172.2h13.36V330.37c0,38.36,22.41,57.33,59.47,57.33,44.4,0,75.43-32.33,75.43-67.24V172.2h12.93V395h-12.93Z"/><path d="M2808.21,172.2h12.93v57.32h.43c14.22-40.08,46.55-61.2,85.34-61.2,50.42,0,93.09,38.79,93.09,115.08,0,68.09-38.36,115.5-94.39,115.5-41.37,0-71.11-22.84-84-57.32h-.43v125h-12.93Zm178.43,111.63c0-68.53-35.34-103.87-81.89-103.87-50.85,0-84.47,42.67-84.47,104.73,0,62.92,33.19,103,84.9,103C2954.32,387.7,2986.64,344.6,2986.64,283.83Z"/></svg>